<?xml version="1.0" standalone="no"?>
<!DOCTYPE svg PUBLIC "-//W3C//DTD SVG 20010904//EN"
 "http://www.w3.org/TR/2001/REC-SVG-20010904/DTD/svg10.dtd">
<svg version="1.0" xmlns="http://www.w3.org/2000/svg"
 width="300.000000pt" height="298.000000pt" viewBox="0 0 300.000000 298.000000"
 preserveAspectRatio="xMidYMid meet">
<metadata>
Created by potrace 1.10, written by Peter Selinger 2001-2011
</metadata>
<g transform="translate(0.000000,298.000000) scale(0.100000,-0.100000)"
fill="#000000" stroke="none">
<path d="M1443 2264 c-8 -22 13 -42 29 -26 8 8 15 9 25 0 7 -6 17 -7 21 -3 4
4 1 10 -7 13 -11 4 -11 6 0 13 7 4 10 11 7 15 -4 3 -19 -3 -34 -15 -15 -12
-30 -18 -33 -15 -3 4 0 9 7 11 15 6 16 23 2 23 -6 0 -13 -7 -17 -16z"/>
<path d="M1587 2264 c-14 -15 -6 -34 14 -34 14 0 19 5 17 17 -3 18 -20 27 -31
17z"/>
<path d="M1318 2255 c-3 -4 -3 -15 -1 -26 7 -24 28 -20 28 6 0 18 -16 30 -27
20z"/>
<path d="M1630 2240 c0 -11 7 -20 15 -20 8 0 15 9 15 20 0 11 -7 20 -15 20 -8
0 -15 -9 -15 -20z"/>
<path d="M1676 2235 c-3 -9 1 -18 10 -22 19 -7 39 11 30 26 -10 16 -33 13 -40
-4z"/>
<path d="M1250 2221 c0 -25 12 -32 30 -21 12 7 11 10 -4 16 -14 5 -15 9 -4 15
10 7 9 9 -4 9 -11 0 -18 -8 -18 -19z"/>
<path d="M1728 2222 c-4 -12 1 -18 14 -19 13 -1 18 4 16 14 -4 24 -25 27 -30
5z"/>
<path d="M1200 2206 c0 -8 4 -17 8 -20 13 -8 35 11 28 23 -10 16 -36 14 -36
-3z"/>
<path d="M1160 2180 c0 -22 1 -23 24 -14 13 5 14 9 5 20 -16 20 -29 17 -29 -6z"/>
<path d="M1837 2176 c-7 -16 1 -26 20 -26 7 0 13 9 13 20 0 23 -25 27 -33 6z"/>
<path d="M969 2053 c-254 -240 -319 -598 -164 -907 47 -94 162 -243 177 -228
5 5 -10 28 -33 53 -84 90 -145 201 -181 326 -31 110 -31 277 0 387 39 135 94
229 199 335 51 52 93 96 93 98 0 14 -30 -7 -91 -64z"/>
<path d="M1988 2063 c119 -106 203 -240 242 -389 24 -94 27 -258 5 -349 -8
-35 -10 -64 -5 -69 5 -5 11 1 14 15 23 98 27 136 27 224 0 164 -49 315 -146
450 -49 69 -161 175 -185 175 -8 0 13 -26 48 -57z"/>
<path d="M1335 1946 c-16 -8 -57 -30 -89 -50 -51 -30 -69 -36 -118 -36 -70 0
-83 -16 -75 -93 4 -43 10 -56 44 -88 27 -24 60 -43 99 -54 90 -26 88 -25 94
-99 l5 -66 -27 0 c-34 0 -67 -31 -75 -71 -3 -18 -19 -40 -39 -56 -40 -30 -42
-50 -12 -103 20 -34 28 -39 71 -44 33 -5 57 -15 74 -32 23 -23 25 -31 19 -75
-4 -28 -3 -49 3 -49 25 0 29 94 5 128 -20 29 -66 52 -103 52 -23 0 -34 8 -50
34 -27 43 -26 54 3 68 15 6 33 30 45 58 26 59 36 68 91 72 40 3 47 8 73 46 16
23 32 42 37 42 12 0 30 -58 30 -98 0 -27 9 -45 39 -78 51 -55 97 -147 122
-242 20 -79 25 -90 35 -79 13 12 -26 142 -65 222 -22 44 -56 96 -75 115 -29
28 -35 43 -36 75 0 47 -28 109 -51 113 -10 2 -27 -16 -47 -48 -17 -27 -35 -50
-39 -50 -4 0 -7 28 -5 62 4 79 -6 94 -83 113 -76 20 -114 43 -142 85 -23 32
-30 84 -15 106 4 7 31 12 60 12 44 0 65 7 131 45 98 57 116 62 185 47 108 -22
147 -80 151 -226 3 -115 19 -150 118 -274 42 -52 91 -121 108 -152 16 -32 37
-58 46 -58 12 0 9 10 -13 48 -43 74 -84 132 -142 201 -75 88 -92 129 -92 222
0 99 -21 166 -63 207 -56 55 -166 77 -232 48z"/>
<path d="M1397 1846 c-36 -57 -55 -145 -39 -180 17 -39 58 -60 115 -60 41 0
54 5 72 27 28 31 48 117 39 163 -10 54 -24 39 -24 -25 0 -69 -15 -118 -40
-131 -31 -17 -96 -12 -121 9 -19 15 -24 28 -23 63 1 41 42 139 64 153 10 6 5
25 -8 25 -4 0 -20 -20 -35 -44z"/>
<path d="M1274 1858 c-3 -5 6 -13 19 -19 25 -11 67 1 67 19 0 10 -80 9 -86 0z"/>
<path d="M1227 1363 c-10 -10 13 -33 33 -33 20 0 45 26 33 33 -5 3 -15 2 -23
-3 -8 -5 -19 -5 -26 0 -6 6 -14 7 -17 3z"/>
<path d="M2100 1250 c-12 -23 -4 -64 16 -81 21 -17 44 7 44 45 0 52 -39 75
-60 36z"/>
<path d="M1980 1245 c-17 -21 -4 -62 25 -81 28 -18 45 -12 45 17 0 48 -48 91
-70 64z"/>
<path d="M1886 1141 c-17 -28 47 -78 84 -66 27 8 25 40 -2 59 -25 17 -74 21
-82 7z"/>
<path d="M2031 1111 c-7 -12 -7 -30 0 -55 5 -20 7 -41 4 -46 -20 -32 30 -79
64 -61 21 12 121 128 121 141 0 27 -34 40 -105 40 -62 0 -76 -3 -84 -19z m139
-32 c0 -6 -18 -29 -39 -52 -45 -48 -58 -44 -63 18 -3 40 -3 40 37 45 44 6 65
3 65 -11z"/>
<path d="M1909 1021 c-20 -16 -22 -21 -10 -35 18 -21 70 -17 85 6 22 35 -39
59 -75 29z"/>
<path d="M1091 876 c-12 -18 -21 -35 -21 -38 0 -3 21 -4 48 -4 40 1 47 4 50
23 2 13 -5 27 -20 37 -31 22 -33 21 -57 -18z m59 -12 c0 -8 -9 -14 -20 -14
-19 0 -27 19 -14 33 10 9 34 -4 34 -19z"/>
<path d="M1837 886 c-18 -14 -17 -16 5 -50 22 -35 45 -50 35 -23 -3 7 4 19 15
26 28 17 20 55 -12 58 -14 2 -33 -3 -43 -11z m53 -20 c0 -15 -24 -28 -34 -19
-13 14 -5 33 14 33 11 0 20 -6 20 -14z"/>
<path d="M1201 838 c-24 -64 -23 -68 4 -78 32 -12 45 -13 45 -1 0 5 -11 12
-25 15 -14 4 -25 11 -25 16 0 13 16 13 40 0 12 -6 21 -7 25 0 3 5 -6 12 -20
16 -14 3 -25 12 -25 20 0 10 6 11 26 4 31 -12 34 -12 34 -1 0 7 -51 31 -67 31
-2 0 -7 -10 -12 -22z"/>
<path d="M1727 832 c-22 -24 -21 -45 1 -65 35 -32 82 -15 82 29 0 48 -52 70
-83 36z m58 -32 c0 -33 -40 -41 -50 -11 -9 28 2 43 28 39 16 -2 22 -10 22 -28z"/>
<path d="M1304 819 c-3 -5 2 -12 11 -15 13 -5 15 -15 10 -45 -4 -25 -3 -39 4
-39 6 0 14 17 17 39 5 32 10 38 25 34 10 -3 19 -1 19 5 0 13 -79 33 -86 21z"/>
<path d="M1650 795 c0 -18 -5 -25 -20 -25 -13 0 -20 7 -20 20 0 11 -5 20 -11
20 -7 0 -8 -14 -4 -42 8 -48 25 -75 25 -40 0 12 2 22 4 22 2 0 11 3 19 6 9 3
16 -3 20 -16 11 -44 24 -11 14 35 -11 49 -27 60 -27 20z"/>
<path d="M1480 785 c-16 -19 -6 -32 30 -40 17 -4 30 -11 30 -16 0 -13 -34 -11
-48 3 -6 6 -15 8 -19 4 -10 -10 25 -36 48 -36 22 0 43 26 35 45 -3 9 -18 15
-36 15 -16 0 -30 5 -30 11 0 8 12 10 36 6 30 -5 34 -4 24 8 -16 19 -54 19 -70
0z"/>
</g>
</svg>
