<svg width="20" height="20" viewBox="0 0 20 20" fill="none" xmlns="http://www.w3.org/2000/svg">
<path d="M1.69686 20C1.2355 20 0.837355 19.8325 0.502413 19.4976C0.167471 19.1626 0 18.7645 0 18.3031V1.69686C0 1.2355 0.167471 0.837356 0.502413 0.502414C0.837355 0.167472 1.2355 0 1.69686 0H9.32582C9.51529 0 9.67389 0.064383 9.80162 0.193148C9.92934 0.321913 9.99321 0.481786 9.99321 0.672767C9.99321 0.863768 9.92934 1.02187 9.80162 1.14706C9.67389 1.27224 9.51529 1.33483 9.32582 1.33483H1.69686C1.60635 1.33483 1.52338 1.37253 1.44795 1.44795C1.37253 1.52338 1.33483 1.60635 1.33483 1.69686V18.3031C1.33483 18.3937 1.37253 18.4766 1.44795 18.5521C1.52338 18.6275 1.60635 18.6652 1.69686 18.6652H9.32582C9.51529 18.6652 9.67389 18.7296 9.80162 18.8583C9.92934 18.9871 9.99321 19.1469 9.99321 19.3379C9.99321 19.5289 9.92934 19.687 9.80162 19.8122C9.67389 19.9374 9.51529 20 9.32582 20H1.69686ZM17.4208 10.6674H7.25111C7.06164 10.6674 6.90304 10.603 6.77531 10.4743C6.64757 10.3455 6.5837 10.1856 6.5837 9.99465C6.5837 9.80365 6.64757 9.64556 6.77531 9.52038C6.90304 9.39518 7.06164 9.33259 7.25111 9.33259H17.3847L14.991 6.93893C14.8598 6.8077 14.7953 6.65272 14.7975 6.47399C14.7998 6.29526 14.8703 6.13652 15.0091 5.99775C15.1478 5.85901 15.3071 5.79152 15.4868 5.79528C15.6664 5.79905 15.8269 5.86654 15.9683 5.99775L19.3936 9.42309C19.5626 9.59956 19.6471 9.79995 19.6471 10.0243C19.6471 10.2486 19.5626 10.4449 19.3936 10.6131L15.9864 14.0203C15.8667 14.1516 15.7172 14.2157 15.538 14.2129C15.3588 14.2101 15.1945 14.1398 15.0451 14.0022C14.914 13.8635 14.8485 13.7036 14.8485 13.5226C14.8485 13.3416 14.9178 13.1817 15.0566 13.043L17.4208 10.6674Z" fill="white"/>
</svg>
