<svg width="46" height="46" viewBox="0 0 46 46" fill="none" xmlns="http://www.w3.org/2000/svg">
<path d="M20.9926 25.0074H2.00738C1.43862 25.0074 0.961874 24.8134 0.577124 24.4253C0.192374 24.0372 0 23.5563 0 22.9827C0 22.409 0.192374 21.9339 0.577124 21.5575C0.961874 21.1809 1.43862 20.9926 2.00738 20.9926H20.9926V2.00738C20.9926 1.43863 21.1866 0.96188 21.5747 0.577129C21.9628 0.192379 22.4437 0 23.0173 0C23.591 0 24.0661 0.192379 24.4425 0.577129C24.8191 0.96188 25.0074 1.43863 25.0074 2.00738V20.9926H43.9926C44.5614 20.9926 45.0381 21.1866 45.4229 21.5747C45.8076 21.9628 46 22.4437 46 23.0173C46 23.591 45.8076 24.0661 45.4229 24.4425C45.0381 24.8191 44.5614 25.0074 43.9926 25.0074H25.0074V43.9926C25.0074 44.5614 24.8133 45.0381 24.4253 45.4229C24.0372 45.8076 23.5563 46 22.9827 46C22.409 46 21.9339 45.8076 21.5574 45.4229C21.1809 45.0381 20.9926 44.5614 20.9926 43.9926V25.0074Z" fill="#DDECF3"/>
</svg>
